<?xml version="1.0" encoding="UTF-8"?>
<svg version="1.1" xmlns="http://www.w3.org/2000/svg" width="512" height="512">
<path d="M0 0 C13.4577256 10.37211448 21.16827934 24.76496255 24.640625 41.1796875 C26.25518579 60.55441697 22.84655604 77.41084655 10.953125 92.9296875 C9.9940625 94.19039062 9.9940625 94.19039062 9.015625 95.4765625 C2.65327486 103.04390319 -5.93812006 108.26954853 -15.046875 111.9296875 C-16.036875 111.9296875 -17.026875 111.9296875 -18.046875 111.9296875 C-18.046875 157.1396875 -18.046875 202.3496875 -18.046875 248.9296875 C-9.136875 243.4846875 -9.136875 243.4846875 -0.046875 237.9296875 C22.05598442 225.3339532 45.7458142 216.20153852 69.29782104 206.73556519 C127.92143573 186.83907501 127.92143573 186.83907501 170.94262695 145.99316406 C172.98992237 139.7864806 172.74110078 133.27610859 172.765625 126.8046875 C172.78881691 125.35673395 172.81419184 123.90881364 172.84179688 122.4609375 C172.90404732 118.95054585 172.93685587 115.44062901 172.953125 111.9296875 C172.36724609 111.74937988 171.78136719 111.56907227 171.17773438 111.38330078 C155.81451641 106.49013476 144.45036608 96.14087581 136.953125 81.9296875 C129.71749654 65.54642513 127.71647806 46.092305 133.69921875 28.89453125 C137.70002379 19.43468382 142.68799901 12.20727511 149.953125 4.9296875 C150.91025391 3.95515625 150.91025391 3.95515625 151.88671875 2.9609375 C164.19192175 -8.70470193 181.01875852 -12.71810124 197.53125 -12.54296875 C216.22734904 -11.88344378 231.16495248 -4.3218246 243.953125 8.9296875 C254.88879188 20.84676038 259.55335052 35.755051 259.390625 51.7421875 C259.37926514 53.31649536 259.37926514 53.31649536 259.36767578 54.92260742 C259.00389119 72.12537012 252.83079717 85.88867099 240.82421875 98.1953125 C234.88805064 103.84880594 225.56651489 111.9296875 216.953125 111.9296875 C216.96883545 112.75992432 216.9845459 113.59016113 217.00073242 114.44555664 C217.46421894 142.63609724 215.43062627 164.79218613 195.32421875 186.4921875 C168.83700425 213.72121855 131.24784873 228.21485084 96.953125 242.9296875 C96.953125 246.70038736 98.23210511 249.65740566 99.578125 253.1171875 C100.13830111 254.57931973 100.69818962 256.04156218 101.2578125 257.50390625 C101.54366211 258.24688965 101.82951172 258.98987305 102.12402344 259.75537109 C102.87744962 261.73122903 103.6120199 263.71239685 104.3359375 265.69921875 C122.55489662 319.81657621 122.55489662 319.81657621 158.578125 362.1796875 C159.33351563 362.67984375 160.08890625 363.18 160.8671875 363.6953125 C164.78715666 366.01499462 168.33539908 366.18173016 172.80859375 366.46484375 C173.80104851 366.52930946 173.80104851 366.52930946 174.81355286 366.59507751 C176.9223567 366.73119415 179.03146234 366.86176097 181.140625 366.9921875 C182.57228904 367.08361851 184.00393003 367.17541114 185.43554688 367.26757812 C188.94114877 367.49247459 192.44704258 367.71239579 195.953125 367.9296875 C196.20509644 367.07044678 196.20509644 367.07044678 196.4621582 366.19384766 C201.63941152 349.50946853 213.85743458 338.92970777 228.953125 330.9296875 C244.25175095 324.68095296 263.45875669 322.76508259 279.17578125 328.671875 C294.41902812 335.57528638 309.23752199 346.00411466 315.953125 361.9296875 C322.6697887 382.07967859 323.72115275 402.57316547 314.390625 422.0546875 C305.91644101 438.61055044 292.31138985 448.29479701 275.01171875 454.0546875 C260.1858933 458.29604753 243.94462208 457.2711574 229.953125 450.9296875 C228.96054687 450.48367188 227.96796875 450.03765625 226.9453125 449.578125 C219.96322377 446.09680499 214.45664327 441.41375871 208.953125 435.9296875 C208.38851563 435.38828125 207.82390625 434.846875 207.2421875 434.2890625 C202.73038631 429.56241364 195.953125 419.74319795 195.953125 412.9296875 C195.12288818 412.94539795 194.29265137 412.9611084 193.43725586 412.97729492 C163.96508832 413.46185293 143.04397319 410.33665755 120.41796875 389.390625 C99.4780628 368.48390432 86.76355677 340.9379488 75.62597656 313.97119141 C73.78125572 309.50594935 71.90976826 305.05205917 70.0390625 300.59765625 C68.69679154 297.3963039 67.35580413 294.19441608 66.015625 290.9921875 C65.6983847 290.23427917 65.38114441 289.47637085 65.05429077 288.69549561 C61.20748911 279.49254777 57.47039476 270.26472254 53.953125 260.9296875 C34.669218 269.11511619 15.48371464 277.90273635 -1.046875 290.9296875 C-2.11228516 291.72246094 -2.11228516 291.72246094 -3.19921875 292.53125 C-10.16800903 297.99038987 -15.17501335 305.26667563 -17.046875 313.9296875 C-17.25870031 316.91659384 -17.23854152 319.87488636 -17.171875 322.8671875 C-17.16285156 323.64642578 -17.15382813 324.42566406 -17.14453125 325.22851562 C-17.12121191 327.12904197 -17.08535086 329.02940758 -17.046875 330.9296875 C-16.15226562 331.3421875 -15.25765625 331.7546875 -14.3359375 332.1796875 C3.2050785 340.46821921 15.18206412 352.1268997 21.953125 370.66796875 C27.57674205 388.48510162 25.73873868 406.69483575 17.27929688 423.22973633 C13.99240016 429.27274036 9.93186376 434.18005884 4.953125 438.9296875 C3.99986328 439.89455078 3.99986328 439.89455078 3.02734375 440.87890625 C-8.77618434 452.14479952 -25.67706963 456.60754624 -41.67919922 456.40234375 C-59.6475328 455.64422098 -75.95918316 448.39341971 -88.45703125 435.4296875 C-101.35695071 420.61308552 -105.16712083 403.28059054 -104.21972656 384.11376953 C-103.03299948 369.11876882 -95.142587 354.02921836 -84.27734375 343.7734375 C-77.40621098 338.09362197 -70.20792382 334.55682031 -62.046875 330.9296875 C-62.046875 258.9896875 -62.046875 187.0496875 -62.046875 112.9296875 C-68.976875 109.4646875 -68.976875 109.4646875 -76.046875 105.9296875 C-79.64910667 103.32117491 -82.8213386 100.91112926 -86.046875 97.9296875 C-86.66949219 97.36121094 -87.29210937 96.79273438 -87.93359375 96.20703125 C-100.01983477 83.84918931 -104.578117 66.26694756 -104.46704102 49.50073242 C-103.95537228 32.12851636 -97.14745758 16.89890204 -84.93359375 4.58984375 C-61.38420382 -17.11128553 -25.87295534 -17.58034145 0 0 Z M-54.5390625 36.40625 C-59.26082341 41.17694107 -60.30349012 45.93731551 -60.484375 52.5546875 C-60.26943293 58.37827431 -59.66030594 62.26463323 -55.46484375 66.54296875 C-49.65320381 71.8481477 -44.67726852 73.41112935 -36.83203125 73.2421875 C-31.15175963 72.60484987 -26.95054718 70.2431937 -23.171875 65.9921875 C-18.87530988 59.80007894 -18.22578932 54.32985209 -19.046875 46.9296875 C-20.78754577 40.84255139 -24.58891109 36.11697177 -30.046875 32.9296875 C-38.62588806 29.71965943 -47.32207022 30.59908877 -54.5390625 36.40625 Z M177.578125 39.3046875 C174.33845171 44.53800589 173.33442787 49.84583237 173.953125 55.9296875 C175.66413509 62.73041117 178.16599741 66.88114055 183.953125 70.87109375 C189.30970493 73.70631477 196.17110572 73.918831 201.984375 72.3984375 C208.06126754 69.94635805 211.66753539 67.11277892 214.265625 61.1171875 C216.69938116 54.35015817 216.4810986 48.80536622 214.0703125 42.078125 C211.58640484 37.30137949 206.90980874 33.88418802 201.953125 31.9296875 C191.51904547 30.70895159 184.95599733 31.92681517 177.578125 39.3046875 Z M239.453125 377.3671875 C235.84092872 383.53802281 235.16032262 388.86383625 235.953125 395.9296875 C237.71178917 401.85518667 240.9072621 405.49850073 245.953125 408.9296875 C251.98284279 411.68238475 257.94444463 411.81509429 264.140625 409.6796875 C268.78152688 407.72322886 271.9628214 405.48587886 274.703125 401.1796875 C277.31127977 394.3984851 277.52825829 388.67541711 274.953125 381.9296875 C271.87155535 375.99481263 268.16456967 373.55992415 262.015625 371.1796875 C253.58571746 370.15788052 245.76466581 371.21343521 239.453125 377.3671875 Z M-57.91796875 382.24609375 C-61.34076755 387.35068296 -60.53218402 394.07131431 -60.046875 399.9296875 C-58.63322806 405.28621717 -55.76934896 409.00980541 -51.09375 411.95703125 C-45.03594161 414.83564631 -38.70951327 415.67813 -32.21875 413.8828125 C-26.79582501 411.50296772 -23.11214536 407.66075184 -20.046875 402.6796875 C-18.31689067 396.19224625 -17.85210695 389.79593142 -20.671875 383.5546875 C-23.80606251 378.15015214 -28.12288049 374.92772115 -34.046875 372.9296875 C-44.43679076 371.59406305 -51.3432017 374.20230518 -57.91796875 382.24609375 Z " fill="#FFFFFF" transform="translate(189.046875,33.0703125)"/>
</svg>
