<svg xmlns="http://www.w3.org/2000/svg" viewBox="0 0 109.5 124.5">
  <path fill="#95BF47" d="M95.9 23.9c-.1-.6-.6-1-1.1-1-.5 0-9.3-.2-9.3-.2s-7.4-7.2-8.1-7.9c-.7-.7-2.2-.5-2.7-.3-.1 0-1.5.5-3.9 1.2-2.3-6.7-6.4-12.8-13.6-12.8h-.6c-2.1-2.7-4.6-3.9-6.8-3.9-16.8 0-24.8 21-27.3 31.7-6.5 2-11 3.4-11.6 3.6-3.6 1.1-3.7 1.2-4.2 4.6-.4 2.5-9.7 74.4-9.7 74.4l72.8 13.6 39.4-8.5s-22.4-93.2-22.5-94.2l.2-.3zM67.2 16.8l-6.3 1.9c0-1.3 0-3.1-.1-5.1 3.8.6 6.4 3.2 6.4 3.2zM56.4 19.2l-13.5 4.2c1.3-5 3.8-10 8.6-13.2 1.9 1.8 4.1 4.3 4.9 9zM45.9 4c1.3 0 2.4.4 3.5 1.2-8.2 3.9-12 13.7-13.4 20.6L24.4 29S28 4.5 45.9 4z"/>
  <path fill="#5E8E3E" d="M94.8 22.9c-.5 0-9.3-.2-9.3-.2s-7.4-7.2-8.1-7.9c-.3-.3-.6-.4-1-.4l-5.5 112.1 39.4-8.5s-22.4-93.2-22.5-94.2c-.1-.5-.6-.9-1.1-.9h-1.9z"/>
  <path fill="#FFF" d="M58.4 39.9l-4.4 13.1s-3.9-2.1-8.6-2.1c-7 0-7.3 4.4-7.3 5.5 0 6 15.7 8.3 15.7 22.4 0 11.1-7 18.2-16.5 18.2-11.3 0-17.1-7.1-17.1-7.1l3-10s6 5.1 11 5.1c3.3 0 4.6-2.6 4.6-4.5 0-7.9-12.9-8.2-12.9-21.1 0-10.8 7.8-21.4 23.5-21.4 6.1-.1 9 1.9 9 1.9z"/>
</svg>
